<svg xmlns="http://www.w3.org/2000/svg" width="132" height="58" fill="none"><g clip-path="url(#a)"><path fill="#fff" d="M61.781 51.04V30.983h-4.318v-5.985h4.318V23.92c0-5.878 3.509-9.382 8.744-9.382 2.537 0 5.236.7 6.8 2.48l-2.59 4.152c-.702-.647-1.62-1.025-2.86-1.025-1.944 0-3.24 1.24-3.24 3.775v1.078h5.29v5.985h-5.29v20.059h-6.854zm14.735 0V24.998h6.855v3.505c1.889-2.265 5.074-3.494 8.312-3.494v6.686c-.486-.108-1.08-.162-1.89-.162-2.266 0-5.289.637-6.422 2.308v17.2h-6.855zm18.08 0V24.998h6.855V51.04h-6.855zm9.823-13.048c0-7.387 5.182-13.642 13.764-13.642 8.636 0 13.817 6.255 13.817 13.642s-5.181 13.696-13.817 13.696c-8.582 0-13.764-6.31-13.764-13.696zm20.457 0c0-4.044-2.376-7.549-6.693-7.549-4.264 0-6.639 3.505-6.639 7.549 0 4.098 2.375 7.603 6.639 7.603 4.317 0 6.693-3.505 6.693-7.603z"/><path fill="#C92000" d="M93.949 18.095a4.04 4.04 0 0 1 4.048-4.044c2.267 0 4.102 1.78 4.102 4.044a4.098 4.098 0 0 1-4.102 4.098c-2.213 0-4.048-1.833-4.048-4.098z"/><path fill="#1D8CB2" d="M46.797 2.936 51.395 0l1.771 1.228 3.311 4.494v.454l-3.91.085-7.63 3.834-15.514 11.177-4.616 9.795-1.262 5.03 5.12 8.7 2.914 3.96-5.518 5.234-2.871-2.855-3.111-3.032-4.644.373-3.662-1.925-1.591 5.043-5.354-3.537-3.269-2.936L0 41.468l1.378-5.853 5.392-3.468 8.228-7.746L29.825 7.359l3.698 2.736 3.598-.739 2.26-3.095-1.14-4.234 8.556.909z"/><path fill="#1D8CB2" d="m44.024 28.348-5.38 7.267 3.092 3.095 3.474 6.43.66 4.241 7.388-2.573-.876-3.957L47.65 32.2l-3.626-3.853z"/><path fill="#EFE5DA" d="m28.666 44.798-5.121-8.701 1.262-5.03 4.616-9.795 15.515-11.177 7.628-3.834 4.006-.085-6.597 11.648-5.951 10.524-5.38 7.267-5.197 4.975-4.781 4.208z"/><path fill="#BD1100" d="m26.062 53.991 5.518-5.234 2.876 1.237 1.859-.48 3.275.375-.95 1.3-1.522 1.014 2.69.489 2.767 1.381-1.383 1.904-3.407-.253-5.093-1.366 1.447 1.853-.496 1.282-2.652.168-4.93-3.67zm4.14-5.733 2.98-.078-.627-1.215.157-.627 1.843.823 2.745.117.824-.313-1.294-.627-2.197-.548-3.529-2.821-2.275 1.88 1.373 3.409zm19.687 5.681h3.451l1.137-1.111-.843-1.762 4.387 1.602 3.26.252 2.236-2.138-2.768-1.381-2.646-.508 1.37-.616 1.276-.881-3.024-1.016-2.327.323-2.14.105-7.389 2.573 4.02 4.558zM30.28 7.36l.157-3.335 1.655-2.557L35.52.82l2.418 1.435 1.058 3.735-1.875 3.05-3.598.316L30.28 7.36zM10.182 51.595l.117 2.789 2.903 1.442 1.914-2.037 3.94 1.403 3.101-1.201-.76-1.788-2.377-1.156 1.53-1.637-.471-1.306-4.644.373-3.68-1.925-1.573 5.043z"/><path fill="#23151A" d="m35.193 8.178.693-4.376-3.538 2.053 2.845 2.323z"/><path fill="#352027" d="m32.645 2.196 3.241 1.606-3.538 2.053.297-3.66zM53.454.15l3.118 5.572-.27-3.415L53.454.15z"/><path fill="#C92820" d="m39.38 6.26-4.187 1.918.693-4.376 3.494 2.459z"/><path fill="#BB1F2A" d="m33.523 10.095 1.67-1.917 4.187-1.917-2.259 3.095-3.598.74z"/><path fill="#C92820" d="m32.348 5.855 1.175 4.24 1.67-1.917-2.845-2.323z"/><path fill="#E75C21" d="m29.825 7.36 2.523-1.505 1.175 4.24-3.698-2.736z"/><path fill="#C92820" d="m32.645 2.196-2.527 1.83 2.23 1.829.297-3.66z"/><path fill="#E14628" d="m29.825 7.36 2.523-1.505-2.23-1.83-.293 3.334z"/><path fill="#BB1F2A" d="m35.886 3.802 2.355-1.775 1.14 4.234-3.495-2.459z"/><path fill="#E14628" d="m32.645 2.196 3.11-1.488.131 3.094-3.242-1.606z"/><path fill="#E75C21" d="M38.24 2.027 35.756.708l.131 3.094 2.355-1.775z"/><path fill="#C92820" d="m32.645 2.196-.784-1.033 3.894-.455-3.11 1.488z"/><path fill="#E14628" d="m30.118 4.025 1.743-2.862.784 1.033-2.527 1.83z"/><path fill="#C92820" d="m51.395 0 1.819 1.228.24-1.078-2.06-.15zm5.177 5.722-3.358-4.494.24-1.078 3.118 5.572z"/><path fill="#43B0C9" d="m52.614 6.26.6-5.032 3.358 4.494-3.958.539z"/><path fill="#1DB9EF" d="M56.572 6.176v-.454l-3.958.539 3.958-.085z"/><path fill="#137691" d="m39.38 6.26-1.14-4.233 8.557.909L39.38 6.26z"/><path fill="#1D8CB2" d="M22.336 16.055 21.11 32.622l-6.111-8.221 7.338-8.346z"/><path fill="#43B0C9" d="m31.58 48.757-11.501-.653 8.588-3.306 2.912 3.96z"/><path fill="#0E6377" d="m41.736 38.71 5.914-6.51-7.146.903-1.86 2.512 3.092 3.095z"/><path fill="#30A1BF" d="M52.383 42.85 47.65 32.2l-2.44 12.94 7.172-2.29z"/><path fill="#5BC6D8" d="M53.258 46.808 45.21 45.14l7.172-2.29.876 3.958z"/><path fill="#137691" d="m0 41.468 1.398-5.94 2.29 2.465L0 41.467z"/><path fill="#1D8CB2" d="m4.828 48.058 5.357 3.537 1.588-5.043-6.945 1.506z"/><path fill="#137691" d="m0 41.468 1.56 3.654 2.288-3.125L0 41.467z"/><path fill="#0E6377" d="m23.19 51.136 8.39-2.379-5.518 5.234-2.872-2.855z"/><path fill="#137691" d="m20.079 48.104 11.5.653-8.39 2.38-3.11-3.033zM6.77 32.147l8.228-7.746 6.111 8.221-14.34-.475z"/><path fill="#1D8CB2" d="m21.11 32.622 3.703-1.555-1.265 5.03-2.439-3.475z"/><path fill="#137691" d="m21.11 32.622-5.16 7.31 7.598-3.835-2.439-3.475z"/><path fill="#30A1BF" d="m13.593 34.839 7.516-2.217-5.16 7.31-2.356-5.093z"/><path fill="#1D8CB2" d="m6.77 32.147 14.34.475-7.517 2.217-6.823-2.692zm15.566-16.092 7.489-8.696-.39 13.913-7.099-5.217z"/><path fill="#2798B7" d="m29.435 21.272 4.088-11.177 3.598-.739-7.686 11.916z"/><path fill="#43B0C9" d="m44.938 10.095-7.817-.739-7.686 11.916 15.503-11.177z"/><path fill="#30A1BF" d="m29.825 7.36 3.698 2.735-4.088 11.177.39-13.913z"/><path fill="#137691" d="m51.395 0 1.819 1.228-6.417 1.708L51.395 0z"/><path fill="#F7F1EB" d="m44.024 28.348-5.38 7.267-9.209-14.343 14.589 7.076zm-20.476 7.749 1.265-5.03 8.634 9.523-9.9-4.493z"/><path fill="#EFE5DA" d="m38.643 35.615-5.196 4.975-8.635-9.523 13.831 4.548z"/><path fill="#DBC9B6" d="m24.813 31.067 4.622-9.795 9.208 14.343-13.83-4.548z"/><path fill="#EFE5DA" d="m29.435 21.272 20.54-3.448-5.951 10.524-14.589-7.076z"/><path fill="#30A1BF" d="m21.11 32.622 8.325-11.35-7.099-5.217-1.227 16.567z"/><path fill="#5BC6D8" d="m29.435 21.272-8.326 11.35 3.703-1.555 4.623-9.795z"/><path fill="#EADBC8" d="m49.975 17.824-5.037-7.729-15.503 11.177 20.54-3.448z"/><path fill="#DBC9B6" d="m52.614 6.26-7.676 3.835 5.037 7.729 2.64-11.563z"/><path fill="#EFE5DA" d="m52.614 6.26 3.958-.084-6.597 11.648 2.64-11.563zM23.548 36.097l5.119 8.7 4.78-4.207-9.9-4.493z"/><path fill="#30A1BF" d="m15.95 39.932 7.598-3.835-3.47 12.007-4.128-8.172z"/><path fill="#5BC6D8" d="m28.667 44.798-5.12-8.701-3.468 12.007 8.588-3.306z"/><path fill="#1D8CB2" d="m46.797 2.936 5.817 3.325.6-5.033-6.417 1.708z"/><path fill="#30A1BF" d="m39.38 6.26 7.417-3.324 5.817 3.325H39.38z"/><path fill="#2798B7" d="m39.38 6.26 5.558 3.835-7.817-.739 2.26-3.095z"/><path fill="#1D8CB2" d="M39.38 6.26h13.234l-7.676 3.835-5.558-3.834z"/><path fill="#1B829E" d="m3.688 37.993.16 4.004 8.447-2.163-8.607-1.841z"/><path fill="#1D8CB2" d="m0 41.468 3.688-3.475.16 4.004L0 41.467z"/><path fill="#2CA0BF" d="m12.295 39.834-.521 6.718-7.926-4.555 8.447-2.163z"/><path fill="#43B0C9" d="m13.593 34.839-1.298 4.995 3.655.098-2.357-5.093z"/><path fill="#30A1BF" d="m3.688 37.993 9.905-3.154-1.298 4.995-8.607-1.841z"/><path fill="#2798B7" d="m13.593 34.839-9.224-1.228-.68 4.382 9.904-3.154z"/><path fill="#1D8CB2" d="m1.398 35.528 2.97-1.917-.68 4.382-2.29-2.465z"/><path fill="#137691" d="m6.77 32.147-2.401 1.464 9.224 1.228-6.823-2.692z"/><path fill="#1D8CB2" d="m45.21 45.14.66 4.26 7.388-2.592-8.048-1.668z"/><path fill="#137691" d="m45.21 45.14-3.474-6.43 5.914-6.51-2.44 12.94zm-43.65-.018 10.214 1.43-6.946 1.506-3.269-2.936z"/><path fill="#1D8CB2" d="m3.848 41.997-2.289 3.125 10.215 1.43-7.926-4.555z"/><path fill="#137691" d="m15.95 39.932-4.176 6.62 8.305 1.552-4.13-8.172z"/><path fill="#1D8CB2" d="m12.295 39.834-.521 6.718 4.176-6.62-3.655-.098z"/><path fill="#137691" d="m47.65 32.2-3.626-3.852-3.52 4.755 7.146-.903z"/><path fill="#BD1100" d="m34.638 47.51 3.113.064-1.248-1.488-1.865 1.423z"/><path fill="#C92000" d="m34.86 45.561-.222 1.948 1.865-1.423-1.643-.525z"/><path fill="#BD1100" d="m31.374 48.477 2.269-.082-1.803-1.492-.466 1.574z"/><path fill="#772715" d="m30.186 46.86 1.188 1.617.466-1.574-1.654-.042zm4.452.65-1.868-.837 2.09-1.112-.222 1.948z"/><path fill="#C92000" d="m31.918 44.78.852 1.893 2.09-1.112-2.942-.78z"/><path fill="#BD1100" d="m30.186 46.86 1.732-2.08.852 1.893-2.584.188z"/><path fill="#772715" d="m28.667 44.798 3.25-.018-1.73 2.08-1.52-2.062z"/><path fill="#C13409" d="m30.991 42.751 3.869 2.81-2.942-.78-.927-2.03z"/><path fill="#721E19" d="m28.667 44.798 2.324-2.047.927 2.03-3.251.017z"/><path fill="#BD1100" d="m30.186 46.86 1.654.043.93-.23-2.584.188z"/><path fill="#C13409" d="m33.643 48.395-1.803-1.492.93-.23.873 1.721zm4.108-.821.812-.587-2.06-.901 1.248 1.488z"/><path fill="#C92000" d="m15.116 53.79-.674.781-1.615-5.618 2.29 4.836zm7.076.234-3.135-2.977 2.34 1.157.795 1.82z"/><path fill="#BD1100" d="m12.827 48.953 2.29 4.836 3.94-2.742-6.23-2.094z"/><path fill="#C13409" d="m19.057 55.192.007-4.145-3.94 2.742 3.933 1.403z"/><path fill="#721E19" d="m15.435 48.477 3.622 2.57 1.492-1.637-5.114-.933z"/><path fill="#93201B" d="m12.827 48.953 2.608-.476 3.622 2.57-6.23-2.094z"/><path fill="#C92000" d="m13.202 55.826 1.24-1.255-4.143-.187 2.903 1.442z"/><path fill="#992213" d="m12.827 48.953 1.615 5.618-4.26-2.976 2.645-2.642z"/><path fill="#BD1100" d="m10.3 54.384-.118-2.789 4.26 2.976-4.143-.187z"/><path fill="#442417" d="m20.079 48.104.47 1.306-5.114-.933 4.644-.373z"/><path fill="#19515E" d="m11.774 46.552 3.66 1.925 4.645-.373-8.306-1.552z"/><path fill="#9B3C0D" d="m11.774 46.552 1.053 2.401-2.645 2.642 1.591-5.043z"/><path fill="#992213" d="m11.774 46.552 1.053 2.401 2.608-.476m3.622 6.715 3.135-1.168-3.135-2.977v4.145z"/><path fill="#C13409" d="m32.692 54.358 5.093 1.366 3.1-2.272-8.193.906z"/><path fill="#BD1100" d="m41.192 55.977-3.407-.253 3.1-2.272.307 2.525z"/><path fill="#C92000" d="m42.575 54.073-1.383 1.904-.306-2.525 1.69.621z"/><path fill="#C92000" d="m39.808 52.692 2.767 1.381-1.69-.621-1.077-.76z"/><path fill="#C13409" d="m40.886 53.452-3.768-1.248 2.69.488 1.078.76z"/><path fill="#BD1100" d="m31.58 48.757 1.112 5.6 4.426-2.154-5.539-3.446z"/><path fill="#A53116" d="m40.886 53.452-3.768-1.248-4.426 2.154 8.194-.906z"/><path fill="#BD1100" d="m34.456 49.994 2.662 2.21 1.521-1.014-4.183-1.196zm1.859-.48-1.86.48 5.135-.105-3.275-.375z"/><path fill="#C13409" d="m38.639 51.19.951-1.301-5.134.105 4.183 1.196zm-7.059-2.433 2.876 1.237 2.662 2.21-5.539-3.447z"/><path fill="#C13409" d="m31.58 48.757 1.112 5.6-6.63-.366 5.517-5.234z"/><path fill="#A50800" d="m30.991 57.66-4.93-3.669 5.518 1.652-.588 2.018z"/><path fill="#BD1100" d="m31.58 55.643 1.112-1.285-6.63-.367 5.517 1.652z"/><path fill="#C13409" d="m34.139 56.211-1.447-1.853-1.113 1.285 2.56.568z"/><path fill="#BD1100" d="m34.139 56.211-.496 1.282-2.652.168.588-2.018 2.56.568z"/><path fill="#C13409" d="m53.634 51.066 4.387 1.602 2.865-2.272-7.252.67z"/><path fill="#BD1100" d="m61.281 52.92-3.26-.252 2.865-2.272.395 2.524z"/><path fill="#C92000" d="m63.517 50.782-2.236 2.138-.395-2.524 2.631.386zM60.75 49.4l2.767 1.382-2.63-.386-.138-.995z"/><path fill="#C13409" d="m60.886 50.396-2.826-1.483 2.69.488.136.995z"/><path fill="#A53116" d="m60.886 50.396-2.826-1.483-4.426 2.154 7.252-.671z"/><path fill="#BD1100" d="m55.398 46.703 2.662 2.21 1.413-.636-4.075-1.574zm2.327-.323-2.327.323 5.351.693-3.024-1.016z"/><path fill="#C13409" d="m59.473 48.277 1.276-.881-5.351-.693 4.075 1.574zm-6.215-1.469 2.14-.105 2.662 2.21-4.802-2.105z"/><path fill="#BD1100" d="m53.258 46.808 4.802 2.105-4.426 2.154-.376-4.26z"/><path fill="#A50800" d="m49.889 53.978-4.02-4.577 6.652 2.95-2.632 1.627z"/><path fill="#BD1100" d="m52.521 52.352 1.113-1.285L45.87 49.4l6.652 2.95z"/><path fill="#C13409" d="m54.477 52.828-.843-1.762-1.113 1.286 1.956.476z"/><path fill="#BD1100" d="m54.477 52.828-1.137 1.15h-3.451l2.632-1.626 1.956.476z"/><path fill="#A50800" d="m53.258 46.808.376 4.258-7.765-1.665 7.389-2.593z"/></g><defs><clipPath id="a"><path fill="#fff" d="M0 0h132v57.661H0z"/></clipPath></defs></svg>